<svg xmlns="http://www.w3.org/2000/svg" version="1.1" viewBox="0 0 641 1265.9978">
  <path
          d="m 635,1202.9989 0,-965 4.99315,0 c 0.55607,0 1.00685,-0.45553 1.00685,-0.99492 l 0,-79.01016 c 0,-0.54948 -0.44995,-0.99492 -1.00685,-0.99492 l -4.99315,0 0,-94.000003 -0.0107,0 c 0.0195,-0.320026 0.0197,-0.645906 -5.4e-4,-0.976482 0,0 0.48792,-15.010692 -8.44667,-25.280051 -8.93459,-10.269359 -16.89356,-12.080855 -16.89356,-12.080855 -4.04339,-1.776511 -10.89908,-3.808494 -15.2018,-4.782709 0,0 -12.62891,-3.385507 -48.63952,-8.229053 C 524.38364,8.7682027 490.69465,5.7209058 471.04222,4.683512 449.01788,3.5209117 419.85592,1.3223063 391.73249,0.52926886 359.8924,-0.36857259 330.29898,0.10588051 321,0.29724244 311.70102,0.10588051 282.1076,-0.36857259 250.26751,0.52926886 222.14408,1.3223063 192.98212,3.5209117 170.95778,4.683512 151.30535,5.7209058 117.61637,8.7682027 96.192772,11.649747 60.182161,16.493293 47.553254,19.8788 47.553254,19.8788 43.25053,20.853015 36.394842,22.884998 32.35145,24.661509 c 0,0 -7.958969,1.811496 -16.893561,12.080855 C 6.5232988,47.011723 7.0112179,62.022415 7.0112179,62.022415 6.9909966,62.352992 6.9911765,62.678871 7,62.998897 l 0,178.000003 -5.9931545,0 C 0.45078007,240.9989 0,241.43713 0,241.99882 l 0,197.00016 c 0,0.55224 0.44994876,0.99992 1.0068455,0.99992 l 5.9931545,0 0,763 c -0.00882,0.32 -0.009,0.6459 0.011218,0.9765 0,0 -0.4879191,15.0107 8.446671,25.28 8.934592,10.2694 16.893561,12.0809 16.893561,12.0809 4.043392,1.7765 10.89908,3.8085 15.201804,4.7827 0,0 12.628907,3.3855 48.639518,8.2291 21.423598,2.8815 55.112578,5.9288 74.765008,6.9662 22.02434,1.1626 51.1863,3.3612 79.30973,4.1542 31.84009,0.8979 61.43351,0.4234 70.73249,0.2321 9.29898,0.1913 38.8924,0.6658 70.73249,-0.2321 28.12343,-0.793 57.28539,-2.9916 79.30973,-4.1542 19.65243,-1.0374 53.34142,-4.0847 74.76501,-6.9662 36.01061,-4.8436 48.63952,-8.2291 48.63952,-8.2291 4.30272,-0.9742 11.15841,-3.0062 15.2018,-4.7827 0,0 7.95897,-1.8115 16.89356,-12.0809 8.93459,-10.2693 8.44667,-25.28 8.44667,-25.28 0.0202,-0.3306 0.02,-0.6565 5.4e-4,-0.9765 l 0.0107,0 0,0 z M 321,72.998897 c 7.73199,0 14,-6.268013 14,-14 0,-7.731987 -6.26801,-14 -14,-14 -7.73199,0 -14,6.268013 -14,14 0,7.731987 6.26801,14 14,14 l 0,0 z M 34,109.9989 l 0,1016 574,0 0,-1016 -574,0 0,0 z m 72.5,-37.000003 c 3.03757,0 5.5,-2.462434 5.5,-5.5 0,-3.037566 -2.46243,-5.5 -5.5,-5.5 -3.03757,0 -5.5,2.462434 -5.5,5.5 0,3.037566 2.46243,5.5 5.5,5.5 l 0,0 z"
          style="fill:#eee;fill-rule:evenodd;stroke:none" />
</svg>